<svg viewBox="0 0 232 43" xmlns="http://www.w3.org/2000/svg" data-logo="logo">
        <g transform="translate(0, 1.5) rotate(0)" id="logogram" style="opacity: 1;"><path fill="#0BDC85" d="M10 15.1533L56.0254 27.3643C57.7788 27.8295 59 29.4164 59 31.2305V40H49V35.8457L29.501 30.6729L10 35.8457V40H0V31.2305C4.53996e-06 29.4164 1.22118 27.8295 2.97461 27.3643L10.001 25.499L2.97461 23.6357C1.22116 23.1706 3.02567e-05 21.5836 0 19.7695V14C0 11.7909 1.79086 10 4 10H10V15.1533Z"></path><path fill="#0BDC85" d="M55 10C57.2091 10 59 11.7909 59 14V20H49V10H55Z"></path><path fill="#0BDC85" d="M45 0C47.2091 0 49 1.79086 49 4V10H10V4C10 1.79086 11.7909 2.81866e-08 14 0H45Z"></path></g>
        <g transform="translate(65, 1)" id="logotype" style="opacity: 1;"><path d="M24.51 34L8.31 34L8.31 8.54L13.52 8.54L13.52 29.68L24.51 29.68L24.51 34ZM30.83 34L25.70 34L25.70 14.89L30.83 14.89L30.83 34ZM28.27 12.40L28.27 12.40Q27.10 12.40 26.28 11.63Q25.46 10.86 25.46 9.77L25.46 9.77Q25.46 8.67 26.28 7.90Q27.10 7.13 28.27 7.13L28.27 7.13Q29.43 7.13 30.26 7.90Q31.09 8.66 31.09 9.77L31.09 9.77Q31.09 10.86 30.26 11.63Q29.43 12.40 28.27 12.40ZM50.60 14.89L50.60 41.14L45.47 41.14L45.47 30.94L45.30 30.94Q44.96 31.71 44.29 32.49Q43.61 33.27 42.53 33.79Q41.46 34.32 39.90 34.32L39.90 34.32Q37.70 34.32 35.93 33.19Q34.16 32.05 33.13 29.86Q32.11 27.66 32.11 24.48L32.11 24.48Q32.11 21.22 33.17 19.03Q34.23 16.84 35.99 15.75Q37.75 14.65 39.87 14.65L39.87 14.65Q41.49 14.65 42.57 15.20Q43.64 15.75 44.31 16.55Q44.98 17.35 45.30 18.11L45.30 18.11L45.56 18.11L45.56 14.89L50.60 14.89ZM41.47 30.21L41.47 30.21Q42.77 30.21 43.70 29.49Q44.62 28.77 45.10 27.48Q45.58 26.19 45.58 24.46L45.58 24.46Q45.58 22.72 45.11 21.45Q44.64 20.17 43.71 19.47Q42.79 18.76 41.47 18.76L41.47 18.76Q40.12 18.76 39.21 19.49Q38.30 20.23 37.83 21.51Q37.37 22.79 37.37 24.46L37.37 24.46Q37.37 26.14 37.84 27.44Q38.31 28.74 39.23 29.47Q40.14 30.21 41.47 30.21ZM59.28 34.24L59.28 34.24Q57.30 34.24 55.81 33.38Q54.32 32.51 53.51 30.90Q52.70 29.28 52.70 27.04L52.70 27.04L52.70 14.89L57.83 14.89L57.83 26.16Q57.83 27.93 58.75 28.94Q59.67 29.95 61.28 29.95L61.28 29.95Q62.37 29.95 63.21 29.48Q64.05 29.01 64.52 28.11Q64.99 27.22 64.99 25.95L64.99 25.95L64.99 14.89L70.11 14.89L70.11 34L65.28 34L65.21 29.23L65.50 29.23Q64.75 31.64 63.20 32.94Q61.66 34.24 59.28 34.24ZM77.34 34L72.21 34L72.21 14.89L77.34 14.89L77.34 34ZM74.78 12.40L74.78 12.40Q73.62 12.40 72.80 11.63Q71.98 10.86 71.98 9.77L71.98 9.77Q71.98 8.67 72.80 7.90Q73.62 7.13 74.78 7.13L74.78 7.13Q75.94 7.13 76.77 7.90Q77.60 8.66 77.60 9.77L77.60 9.77Q77.60 10.86 76.77 11.63Q75.94 12.40 74.78 12.40ZM86.41 34.32L86.41 34.32Q84.21 34.32 82.44 33.19Q80.67 32.05 79.65 29.86Q78.62 27.66 78.62 24.48L78.62 24.48Q78.62 21.22 79.68 19.03Q80.74 16.84 82.50 15.75Q84.26 14.65 86.38 14.65L86.38 14.65Q88.00 14.65 89.08 15.20Q90.16 15.75 90.82 16.55Q91.49 17.35 91.81 18.11L91.81 18.11L91.99 18.11L91.99 8.54L97.11 8.54L97.11 34L92.07 34L92.07 30.94L91.81 30.94Q91.47 31.71 90.80 32.49Q90.12 33.27 89.05 33.79Q87.97 34.32 86.41 34.32ZM87.99 30.21L87.99 30.21Q89.29 30.21 90.21 29.49Q91.13 28.77 91.61 27.48Q92.09 26.19 92.09 24.46L92.09 24.46Q92.09 22.72 91.62 21.45Q91.15 20.17 90.23 19.47Q89.30 18.76 87.99 18.76L87.99 18.76Q86.64 18.76 85.72 19.49Q84.81 20.23 84.35 21.51Q83.89 22.79 83.89 24.46L83.89 24.46Q83.89 26.14 84.36 27.44Q84.83 28.74 85.74 29.47Q86.65 30.21 87.99 30.21ZM110.08 34L99.33 34L99.33 8.54L109.43 8.54Q112.24 8.54 114.11 9.38Q115.98 10.23 116.91 11.70Q117.84 13.17 117.84 15.08L117.84 15.08Q117.84 16.59 117.24 17.70Q116.64 18.82 115.61 19.53Q114.58 20.24 113.26 20.55L113.26 20.55L113.26 20.81Q114.70 20.86 115.97 21.62Q117.24 22.38 118.04 23.74Q118.83 25.10 118.83 26.99L118.83 26.99Q118.83 28.99 117.84 30.58Q116.85 32.17 114.91 33.09Q112.97 34 110.08 34L110.08 34ZM104.54 22.81L104.54 29.71L109.06 29.71Q111.35 29.71 112.41 28.82Q113.47 27.93 113.47 26.50L113.47 26.50Q113.47 25.40 112.94 24.57Q112.42 23.75 111.47 23.28Q110.51 22.81 109.19 22.81L109.19 22.81L104.54 22.81ZM104.54 12.79L104.54 19.23L108.66 19.23Q109.77 19.23 110.66 18.83Q111.55 18.43 112.06 17.69Q112.56 16.94 112.56 15.92L112.56 15.92Q112.56 14.53 111.58 13.66Q110.59 12.79 108.77 12.79L108.77 12.79L104.54 12.79ZM125.43 34.38L125.43 34.38Q123.62 34.38 122.17 33.74Q120.73 33.09 119.90 31.82Q119.07 30.55 119.07 28.65L119.07 28.65Q119.07 27.06 119.66 25.98Q120.25 24.91 121.27 24.26Q122.28 23.61 123.57 23.27Q124.86 22.93 126.28 22.79L126.28 22.79Q127.94 22.62 128.96 22.47Q129.97 22.33 130.44 22.01Q130.91 21.70 130.91 21.08L130.91 21.08L130.91 20.99Q130.91 20.17 130.57 19.61Q130.23 19.05 129.56 18.75Q128.90 18.45 127.92 18.45L127.92 18.45Q126.93 18.45 126.20 18.75Q125.46 19.05 125.00 19.54Q124.54 20.04 124.32 20.65L124.32 20.65L119.62 19.87Q120.11 18.21 121.26 17.05Q122.40 15.88 124.10 15.27Q125.80 14.65 127.92 14.65L127.92 14.65Q129.48 14.65 130.93 15.02Q132.38 15.39 133.54 16.16Q134.69 16.93 135.36 18.16Q136.04 19.39 136.04 21.13L136.04 21.13L136.04 34L131.19 34L131.19 31.35L131.01 31.35Q130.55 32.24 129.78 32.91Q129.02 33.59 127.93 33.98Q126.85 34.38 125.43 34.38ZM126.88 30.77L126.88 30.77Q128.09 30.77 129.01 30.29Q129.92 29.81 130.43 28.99Q130.95 28.17 130.95 27.16L130.95 27.16L130.95 25.10Q130.72 25.27 130.26 25.40Q129.80 25.54 129.24 25.64Q128.67 25.75 128.13 25.83Q127.58 25.92 127.15 25.97L127.15 25.97Q126.21 26.10 125.49 26.41Q124.78 26.72 124.38 27.22Q123.99 27.73 123.99 28.51L123.99 28.51Q123.99 29.25 124.37 29.75Q124.74 30.26 125.38 30.51Q126.02 30.77 126.88 30.77ZM143.27 34L138.14 34L138.14 14.89L143.10 14.89L143.10 18.23L143.30 18.23Q143.83 16.45 145.07 15.54Q146.31 14.64 147.91 14.64L147.91 14.64Q148.31 14.64 148.76 14.68Q149.21 14.72 149.57 14.81L149.57 14.81L149.57 19.39Q149.23 19.27 148.58 19.20Q147.93 19.13 147.35 19.13L147.35 19.13Q146.19 19.13 145.25 19.64Q144.31 20.14 143.79 21.04Q143.27 21.93 143.27 23.13L143.27 23.13L143.27 34ZM157.71 34.38L157.71 34.38Q155.40 34.38 153.62 33.72Q151.84 33.06 150.72 31.80Q149.59 30.55 149.26 28.77L149.26 28.77L154.03 27.95Q154.41 29.28 155.35 29.95Q156.29 30.62 157.86 30.62L157.86 30.62Q159.31 30.62 160.17 30.06Q161.02 29.51 161.02 28.65L161.02 28.65Q161.02 27.90 160.41 27.42Q159.81 26.94 158.56 26.69L158.56 26.69L155.26 26.00Q152.49 25.44 151.13 24.08Q149.76 22.72 149.76 20.58L149.76 20.58Q149.76 18.74 150.77 17.41Q151.77 16.09 153.57 15.37Q155.36 14.65 157.79 14.65L157.79 14.65Q160.05 14.65 161.70 15.28Q163.36 15.90 164.39 17.05Q165.41 18.19 165.75 19.75L165.75 19.75L161.21 20.55Q160.92 19.58 160.09 18.95Q159.26 18.33 157.86 18.33L157.86 18.33Q156.59 18.33 155.74 18.86Q154.89 19.39 154.89 20.26L154.89 20.26Q154.89 20.99 155.44 21.49Q156.00 21.99 157.35 22.26L157.35 22.26L160.78 22.94Q163.55 23.51 164.90 24.78Q166.25 26.05 166.25 28.10L166.25 28.10Q166.25 29.98 165.16 31.39Q164.06 32.80 162.14 33.59Q160.22 34.38 157.71 34.38Z" fill="#c7c7c7"></path></g>
        
      </svg>