<svg width="512" height="512" viewBox="0 0 512 512" fill="none" xmlns="http://www.w3.org/2000/svg">
<g clip-path="url(#clip0_1002_2)">
<path d="M86.7797 193.958L486.183 350.259C493.584 353.153 500.128 359.575 504.798 368.525C509.467 377.475 511.999 388.451 512 399.744V512H425.22V458.829L256.009 392.614L86.7797 458.829V512H7.35348e-07V399.744C0.000847094 388.451 2.53304 377.475 7.20238 368.525C11.8717 359.575 18.4162 353.153 25.8169 350.259L86.7797 326.4L25.8083 302.554C18.4077 299.657 11.8641 293.232 7.19629 284.28C2.52849 275.327 -0.00157475 264.35 7.35348e-07 253.056V179.2C7.35348e-07 165.621 3.65713 152.598 10.1669 142.996C16.6766 133.394 25.5057 128 34.7119 128H86.7797V193.958ZM477.288 128C486.494 128 495.323 133.394 501.833 142.996C508.343 152.598 512 165.621 512 179.2V256H425.22V128H477.288ZM390.508 0C399.715 0 408.544 5.39427 415.053 14.9961C421.563 24.598 425.22 37.6209 425.22 51.2V128H86.7797V51.2C86.7797 37.6209 90.4368 24.598 96.9465 14.9961C103.456 5.39427 112.285 0 121.492 0L390.508 0Z" fill="#0BDC85"/>
</g>
<defs>
<clipPath id="clip0_1002_2">
<rect width="512" height="512" fill="white"/>
</clipPath>
</defs>
</svg>
