<svg width="192" height="192" viewBox="0 0 192 192" fill="none" xmlns="http://www.w3.org/2000/svg">
<g clip-path="url(#clip0_1002_2)">
<path d="M32.5424 72.7344L182.319 131.347C185.094 132.432 187.548 134.841 189.299 138.197C191.05 141.553 192 145.669 192 149.904V192H159.458V172.061L96.0032 147.23L32.5424 172.061V192H2.75756e-07V149.904C0.00031766 145.669 0.94989 141.553 2.70089 138.197C4.45189 134.841 6.90607 132.432 9.68136 131.347L32.5424 122.4L9.6781 113.458C6.90288 112.371 4.44903 109.962 2.69861 106.605C0.948184 103.248 -0.00059053 99.1311 2.75756e-07 94.896V67.2C2.75756e-07 62.1078 1.37143 57.2242 3.81258 53.6236C6.25373 50.0229 9.56464 48 13.0169 48H32.5424V72.7344ZM178.983 48C182.435 48 185.746 50.0229 188.187 53.6236C190.629 57.2242 192 62.1078 192 67.2V96H159.458V48H178.983ZM146.441 0C149.893 0 153.204 2.02285 155.645 5.62355C158.086 9.22425 159.458 14.1078 159.458 19.2V48H32.5424V19.2C32.5424 14.1078 33.9138 9.22425 36.3549 5.62355C38.7961 2.02285 42.107 0 45.5593 0L146.441 0Z" fill="#0BDC85"/>
</g>
<defs>
<clipPath id="clip0_1002_2">
<rect width="192" height="192" fill="white"/>
</clipPath>
</defs>
</svg>
